<?xml version="1.0" encoding="utf-8"?>
<!-- Generator: Adobe Illustrator 23.1.0, SVG Export Plug-In . SVG Version: 6.00 Build 0)  -->
<svg version="1.1"
	 id="svg4016" xmlns:cc="http://creativecommons.org/ns#" xmlns:dc="http://purl.org/dc/elements/1.1/" xmlns:inkscape="http://www.inkscape.org/namespaces/inkscape" xmlns:rdf="http://www.w3.org/1999/02/22-rdf-syntax-ns#" xmlns:sodipodi="http://sodipodi.sourceforge.net/DTD/sodipodi-0.dtd" xmlns:svg="http://www.w3.org/2000/svg"
	 xmlns="http://www.w3.org/2000/svg" xmlns:xlink="http://www.w3.org/1999/xlink" x="0px" y="0px" viewBox="0 0 30 30"
	 style="enable-background:new 0 0 30 30;" xml:space="preserve">
<style type="text/css">
	.st0{fill:#2F3239;}
	.st1{fill:#FFFFFF;}
</style>
<sodipodi:namedview  bordercolor="#666666" borderopacity="1.0" fit-margin-bottom="0" fit-margin-left="0" fit-margin-right="0" fit-margin-top="0" id="base" inkscape:current-layer="g5591" inkscape:cx="111.34251" inkscape:cy="112.69284" inkscape:document-units="px" inkscape:guide-bbox="true" inkscape:pageopacity="0.0" inkscape:pageshadow="2" inkscape:window-height="1018" inkscape:window-maximized="1" inkscape:window-width="1920" inkscape:window-x="-8" inkscape:window-y="-8" inkscape:zoom="2.8" pagecolor="#ffffff" showgrid="false" showguides="true">
	<sodipodi:guide  id="guide8112" orientation="0,1" position="121.07143,208.92857"></sodipodi:guide>
	<sodipodi:guide  id="guide8114" orientation="0,1" position="112.5,18.392857"></sodipodi:guide>
</sodipodi:namedview>
<g id="layer1" transform="translate(-331.94914,-460.2643)" inkscape:groupmode="layer" inkscape:label="Layer 1">
	<g id="g5591" transform="translate(1231.0309,463.97355)">
		<g id="g8136" transform="translate(1.9642857,90.952937)">
			
				<path id="path8138" sodipodi:cx="328.57144" sodipodi:cy="602.7193" sodipodi:rx="147.14285" sodipodi:ry="26.071428" sodipodi:type="arc" class="st0" d="
				M-875.9-71.7c0,1.8-4.5,3.2-9.9,3.2s-9.9-1.5-9.9-3.2s4.5-3.2,9.9-3.2S-875.9-73.5-875.9-71.7z"/>
			<path id="path8140" inkscape:connector-curvature="0" class="st1" d="M-895.8-77L-895.8-77C-895.8-76.9-895.8-77-895.8-77
				L-895.8-77z M-875.9-77L-875.9-77L-875.9-77L-875.9-77z M-875.9-76.8c0,1.8-4.5,3.2-9.9,3.2s-9.8-1.4-9.9-3.1v4.8v0.1v0.1
				c0.1,1.7,4.5,3.1,9.9,3.1s9.8-1.4,9.9-3.1l0,0v-0.1l0,0l0,0V-76.8L-875.9-76.8z"/>
			
				<path id="path8142" sodipodi:cx="328.57144" sodipodi:cy="602.7193" sodipodi:rx="147.14285" sodipodi:ry="26.071428" sodipodi:type="arc" class="st0" d="
				M-875.9-76.8c0,1.8-4.5,3.2-9.9,3.2s-9.9-1.5-9.9-3.2c0-1.8,4.5-3.2,9.9-3.2S-875.9-78.6-875.9-76.8z"/>
			
				<path id="path8144" sodipodi:cx="328.57144" sodipodi:cy="602.7193" sodipodi:rx="147.14285" sodipodi:ry="26.071428" sodipodi:type="arc" class="st1" d="
				M-876-77.1c0,1.7-4.4,3.1-9.8,3.1c-5.4,0-9.8-1.4-9.8-3.1c0-1.7,4.4-3.1,9.8-3.1C-880.4-80.2-876-78.8-876-77.1z"/>
		</g>
		<g id="g8126" transform="translate(1.9642857,45.476467)">
			
				<path id="path8128" sodipodi:cx="328.57144" sodipodi:cy="602.7193" sodipodi:rx="147.14285" sodipodi:ry="26.071428" sodipodi:type="arc" class="st1" d="
				M-875.9-31.6c0,1.8-4.5,3.2-9.9,3.2s-9.9-1.5-9.9-3.2c0-1.8,4.5-3.2,9.9-3.2S-875.9-33.3-875.9-31.6z"/>
			<path id="path8130" inkscape:connector-curvature="0" class="st1" d="M-895.8-36.8L-895.8-36.8L-895.8-36.8L-895.8-36.8z
				 M-875.9-36.8L-875.9-36.8L-875.9-36.8L-875.9-36.8z M-875.9-36.7c0,1.8-4.5,3.2-9.9,3.2s-9.8-1.4-9.9-3.1v4.8v0.1v0.1
				c0.1,1.7,4.5,3.1,9.9,3.1s9.8-1.4,9.9-3.1l0,0v-0.1l0,0l0,0V-36.7L-875.9-36.7z"/>
			
				<path id="path8132" sodipodi:cx="328.57144" sodipodi:cy="602.7193" sodipodi:rx="147.14285" sodipodi:ry="26.071428" sodipodi:type="arc" class="st0" d="
				M-875.9-36.7c0,1.8-4.5,3.2-9.9,3.2s-9.9-1.5-9.9-3.2c0-1.8,4.5-3.2,9.9-3.2S-875.9-38.4-875.9-36.7z"/>
			
				<path id="path8134" sodipodi:cx="328.57144" sodipodi:cy="602.7193" sodipodi:rx="147.14285" sodipodi:ry="26.071428" sodipodi:type="arc" class="st1" d="
				M-876-36.9c0,1.7-4.4,3.1-9.8,3.1c-5.4,0-9.8-1.4-9.8-3.1s4.4-3.1,9.8-3.1C-880.4-40.1-876-38.6-876-36.9z"/>
		</g>
		<g id="g8120" transform="translate(1.9642857,0)">
			
				<path id="path3861-1" sodipodi:cx="328.57144" sodipodi:cy="602.7193" sodipodi:rx="147.14285" sodipodi:ry="26.071428" sodipodi:type="arc" class="st0" d="
				M-875.9,8.6c0,1.8-4.5,3.2-9.9,3.2s-9.9-1.5-9.9-3.2c0-1.8,4.5-3.2,9.9-3.2S-875.9,6.8-875.9,8.6z"/>
			<path id="path3863-8" inkscape:connector-curvature="0" class="st1" d="M-895.8,3.3L-895.8,3.3C-895.8,3.4-895.8,3.3-895.8,3.3
				L-895.8,3.3z M-875.9,3.3L-875.9,3.3L-875.9,3.3L-875.9,3.3z M-875.9,3.4c0,1.8-4.5,3.2-9.9,3.2s-9.8-1.4-9.9-3.1v4.8v0.1v0.1
				c0.1,1.7,4.5,3.1,9.9,3.1s9.8-1.4,9.9-3.1l0,0V8.4l0,0l0,0V3.4L-875.9,3.4z"/>
			
				<path id="path3865-9" sodipodi:cx="328.57144" sodipodi:cy="602.7193" sodipodi:rx="147.14285" sodipodi:ry="26.071428" sodipodi:type="arc" class="st0" d="
				M-875.9,3.4c0,1.8-4.5,3.2-9.9,3.2s-9.9-1.5-9.9-3.2c0-1.8,4.5-3.2,9.9-3.2S-875.9,1.6-875.9,3.4z"/>
			
				<path id="path3867-2" sodipodi:cx="328.57144" sodipodi:cy="602.7193" sodipodi:rx="147.14285" sodipodi:ry="26.071428" sodipodi:type="arc" class="st1" d="
				M-876,3.2c0,1.7-4.4,3.1-9.8,3.1c-5.4,0-9.8-1.4-9.8-3.1s4.4-3.1,9.8-3.1S-876,1.5-876,3.2z"/>
		</g>
	</g>
</g>
</svg>
